<svg xmlns="http://www.w3.org/2000/svg" xmlns:xlink="http://www.w3.org/1999/xlink" version="1.1" x="0px" y="0px" viewBox="0 0 90 112.5"><desc iVinci="yes" version="4.4" gridStep="20" showGrid="no" snapToGrid="no" codePlatform="0"/><g><g><desc type="0" basicInfo-basicType="0" basicInfo-roundedRectRadius="12" basicInfo-polygonSides="6" basicInfo-starPoints="5" bounding="rect(-42.5417,-45.1123,85.0835,90.2247)" text="" font-familyName="" font-pixelSize="20" font-bold="0" font-underline="0" font-alignment="1" strokeStyle="0" markerStart="0" markerEnd="0" shadowEnabled="0" shadowOffsetX="0" shadowOffsetY="2" shadowBlur="4" shadowOpacity="160" blurEnabled="0" blurRadius="4" transform="matrix(1,0,0,1,44.9223,45.1123)" pers-center="0,0" pers-size="0,0" pers-start="0,0" pers-end="0,0" locked="0" mesh="" flag=""/><path d="M50,52.182 C51.452,55.955 53.073,56.495 53.451,56.72 C54.755,57.492 56.199,57.264 57.661,56.995 C59.122,56.727 54.755,53.64 54.906,52.934 C55.057,52.229 60.107,52.351 61.133,52.861 C62.159,53.371 62.234,55.187 63.328,55.7 C64.216,56.17 65.896,56.977 65.934,57.141 C65.971,57.306 65.523,59.07 65.502,59.183 C65.48,59.295 63.813,65.905 65.685,68.462 C65.94,68.776 66.186,69.066 66.426,69.335 C67.122,70.117 67.23,67.789 67.947,68.15 L70.434,69.04 C70.964,69.421 69.798,71.731 69.798,71.731 C69.798,71.731 70.553,69.49 71.172,69.62 C73.253,70.484 73.5,69.671 74.94,70.468 C75.083,71.679 74.468,73.186 74.468,73.186 C74.468,73.186 75.077,71.195 75.447,70.812 C75.817,70.429 76.811,70.245 77.057,70.981 C78.018,70.967 77.297,74.043 77.297,74.043 C77.297,74.043 77.307,71.075 77.972,71.217 C78.558,71.142 78.997,70.57 79.315,71.331 C79.634,72.092 79.134,74.294 79.134,74.294 L79.565,71.799 C79.565,71.799 81.186,70.553 81.71,71.994 C81.683,73.514 81.807,74.432 81.807,74.432 C81.807,74.432 81.661,72.996 82.113,72.423 C82.565,71.85 83.63,70.451 83.964,72.149 C84.495,74.625 83.623,74.985 84.147,74.61 C84.418,74.537 83.73,71.577 85.288,72.158 C85.524,72.918 85.279,74.774 85.447,74.745 C85.447,74.745 85.193,73.186 85.732,72.325 C85.777,72.159 85.916,72.214 85.916,72.214 C85.916,72.214 86.188,73.278 85.714,74.89 C85.524,75.538 85.739,76.231 85.93,76.859 C86.346,78.148 84.543,79.352 84.91,83.203 C85.359,87.907 85.766,89.623 83.052,90.17 C79.898,90.806 70.788,85.723 66.952,83.873 C62.8542,81.6483 57.6736,82.0995 53.977,79.092 C52.249,77.529 51.419,75.28 50.933,73.095 C50.1229,67.519 50.2879,61.7885 47.168,56.814 C43.984,50.63 48.96,49.481 50,52.182 M45.984,0 C48.813,0.0229988 51.642,0.386002 54.429,0.844002 C68.7538,2.04626 83.7079,12.6097 83.97,27.916 C86.166,31.567 84.147,34.039 83.427,37.244 C83.583,40.826 86.525,43.855 87.464,44.71 C86.261,45.935 86.3,46.911 86.214,47.769 C86.094,50.628 78.08,56.702 86.094,58.751 C82.837,61.223 87.145,64.074 86.576,65.716 C85.504,66.269 85.945,66.615 86.11,67.282 C86.854,68.134 86.893,71.067 86.664,71.341 C86.483,71.229 86.32,71.332 86.275,71.131 C86.081,70.257 85.463,67.922 85.463,67.922 L85.618,68.076 C85.618,68.076 85.462,70.207 85.327,70.698 C84.954,70.806 84.708,71.138 84.633,71.023 C84.275,70.828 83.496,67.73 83.496,67.73 C83.496,67.73 83.355,70.493 82.717,71.053 C81.68,70.946 82.353,70.095 81.763,70.17 L81.341,67.159 C81.2,67.84 81.767,70.277 81.526,70.213 L80.394,70.41 L79.522,69.969 C78.894,69.801 79.531,68.697 79.318,67.731 C79.219,67.278 79.184,67.093 79.137,66.867 C79.091,66.641 79.371,69.909 78.962,69.868 C77.328,68.883 75.58,70.045 74.855,69.326 C74.656,68.643 74.702,66.94 74.702,66.94 C74.702,66.94 74.696,69.452 74.295,69.286 C73.852,69.102 71.96,68.343 70.768,68.422 C70.489,67.846 71.29,65.873 70.82,65.944 C70.82,65.944 70.35,68.284 70.125,68.242 C68.864,66.886 67.621,66.881 67.075,66.716 C66.868,66.654 66.717,66.594 67.786,64.967 C65.434,64.624 66.123,58.92 66.144,58.673 C66.166,58.427 66.458,57.379 66.508,57.194 C66.557,57.009 66.867,57.175 67.239,57.248 C68.846,57.503 69.219,56.676 70.725,56.931 C72.231,57.187 73.317,58.314 74.327,57.661 C75.49,56.908 76.818,55.794 76.818,55.794 C76.818,55.794 75.183,56.859 74.323,57.448 C73.462,58.036 71.307,56.388 69.996,56.658 C68.445,56.977 67.51,57 66.849,56.749 C66.182,56.496 63.812,55.015 63.218,54.67 C62.623,54.325 62.613,52.88 61.346,52.217 C61.298,52.198 61.79,52.671 61.201,52.159 C60.613,51.647 59.449,51.952 58.58,51.928 L57.646,51.923 C55.7177,51.4549 50.9499,52.7628 50.838,52.153 C50.334,51.037 48.605,50.176 47.52,50.495 C47.257,50.572 47.004,50.708 46.761,50.905 C45.863,51.631 45.442,52.411 45.384,53.324 C45.319,53.66 45.447,54.001 45.447,54.333 C45.448,55.497 44.967,58.194 44.115,59.13 C43.564,59.735 42.815,60.08 42.143,60.535 C41.753,60.8 41.392,61.091 41.042,61.403 C45.844,67.496 36.294,65.242 34.996,64.44 C33.698,63.638 33.421,62.524 30.014,62.212 C10.9874,63.1831 -2.59575,40.6816 4.122,23.482 L6.583,25.44 L6.412,29.703 L9.39,31.437 L7.673,34.153 C11.565,37.96 9.809,35.566 13.375,40.516 L16.111,43.314 L16.594,44.016 L16.832,45.276 L17,48.531 L19.677,51.213 L20.078,55.041 L24.305,58.003 L20.174,54.592 L20.265,51.511 L17.078,48.016 L17.27,45.669 L16.998,44.543 C16.998,44.543 16.681,43.483 16.594,43.219 L21.964,42.197 C26.758,36.496 24.628,39.187 28.423,34.177 L32.735,32.845 L33.562,28.141 L37.261,26.676 L40.531,21.188 L46.249,24.023 L49.297,22.547 L50.276,25.875 L54.391,28.484 L55.268,31.309 L59.495,35.199 C59.04,41.076 59.835,38.475 57.529,43.11 L59.545,40.035 C59.569,39.987 59.562,40.012 59.566,39.959 L59.94,35.13 L55.856,31.402 L54.941,28.658 L50.297,25.156 L49.969,22.813 L52.664,25.426 C56.064,26.179 62.603,27.535 62.603,27.535 C64.5542,31.7227 63.1265,28.2372 62.218,25.931 L62.295,23.946 L62.78,18.906 L59.488,18.162 L61.078,15.563 L58.391,13.81 L60.516,10.625 L56.281,10.391 L59.769,8.055 L57.328,5.934 L60.025,4.706 L55.816,2.76 L59.151,4.483 L56.192,6.24 L58.942,8.175 L55.188,10.379 L59.697,11.278 L57.812,13.5 L60.545,15.979 L58.469,18.219 L62.458,19.413 L61.582,27.05 L52.995,24.955 C52.995,24.955 50.787,23.056 49.683,22.107 L46.109,23.594 L40.41,20.852 L36.797,26.453 L32.854,28.199 L32.377,32.363 C32.377,32.363 28.472,33.755 28.28,33.707 C28.089,33.659 24.655,38.827 24.234,39.109 C23.604,40.072 22.74,40.85 22.109,41.812 L16.312,42.859 C12.315,39.328 14.312,41.512 10.742,36.556 C10.727,36.536 10.424,36.423 10.406,36.406 L8.21,34.075 L9.757,31.223 L6.676,29.664 L6.969,25.539 L4.4,22.758 C9.89536,6.76946 27.8642,0.284344 43.463,0.0419998 L45.984,0 M81.783,33.471 C79.898,34.513 78.048,35.623 76.298,36.868 C75.36,37.537 74.419,38.262 73.708,39.164 C72.087,41.365 72.451,43.53 73.52,44.57 C74.589,45.61 79.862,48.58 79.862,48.58 C79.862,48.58 79.052,47.031 78.594,45.174 C78.082,43.095 77.542,43.403 77.451,41.991 C77.361,40.579 78.034,41.037 78.542,38.618 C79.05,36.199 81.783,33.471 81.783,33.471 M70.136,34.693 C67.847,35.7 66.602,38.709 66.495,44.919 C66.466,46.598 60.386,46.564 56.852,47.313 C54.103,47.897 42.715,47.981 42.715,47.981 C48.9583,48.531 54.6103,48.2471 60.44,47.219 C62.3171,46.8178 64.4015,47.849 66.04,46.84 C67.446,45.702 66.673,44.133 67.136,40.066 C67.6,35.999 72.702,33.635 72.702,33.635 C72.702,33.635 72.425,33.686 70.136,34.693 M41.62,52.636 C40.6,52.636 39.863,53.147 39.863,54.135 C39.863,55.122 40.009,56.052 41.03,56.052 C42.05,56.052 42.877,55.252 42.877,54.265 C42.877,53.278 42.64,52.636 41.62,52.636 " style="" stroke="none" fill-rule="evenodd" fill="#000000" fill-opacity="1"/></g></g><text x="0" y="105" fill="#000000" font-size="5px" font-weight="bold" font-family="'Helvetica Neue', Helvetica, Arial-Unicode, Arial, Sans-serif">Created by Mark S Waterhouse</text><text x="0" y="110" fill="#000000" font-size="5px" font-weight="bold" font-family="'Helvetica Neue', Helvetica, Arial-Unicode, Arial, Sans-serif">from the Noun Project</text></svg>